<?xml version="1.0" encoding="UTF-8" standalone="no"?>
<svg
   xmlns:dc="http://purl.org/dc/elements/1.1/"
   xmlns:cc="http://creativecommons.org/ns#"
   xmlns:rdf="http://www.w3.org/1999/02/22-rdf-syntax-ns#"
   xmlns:svg="http://www.w3.org/2000/svg"
   xmlns="http://www.w3.org/2000/svg"
   xmlns:sodipodi="http://sodipodi.sourceforge.net/DTD/sodipodi-0.dtd"
   xmlns:inkscape="http://www.inkscape.org/namespaces/inkscape"
   version="1.1"
   x="0px"
   y="0px"
   width="80"
   height="80"
   viewBox="5 -10 80 108"
   enable-background="new 0 0 100 100"
   xml:space="preserve"
   id="svg3092"
   inkscape:version="0.48.4 r9939"
   sodipodi:docname="noun_14010_cc.svg"
   inkscape:export-filename="/home/thomas/osm-bookmarklets/src/img/osm-bookmarklet.png"
   inkscape:export-xdpi="45"
   inkscape:export-ydpi="45"><metadata
     id="metadata3118"><rdf:RDF><cc:Work
         rdf:about=""><dc:format>image/svg+xml</dc:format><dc:type
           rdf:resource="http://purl.org/dc/dcmitype/StillImage" /><dc:title></dc:title></cc:Work></rdf:RDF></metadata><defs
     id="defs3116" /><sodipodi:namedview
     pagecolor="#ffffff"
     bordercolor="#666666"
     borderopacity="1"
     objecttolerance="10"
     gridtolerance="10"
     guidetolerance="10"
     inkscape:pageopacity="0"
     inkscape:pageshadow="2"
     inkscape:window-width="1600"
     inkscape:window-height="874"
     id="namedview3114"
     showgrid="false"
     inkscape:zoom="2.36"
     inkscape:cx="-22.881356"
     inkscape:cy="50"
     inkscape:window-x="0"
     inkscape:window-y="0"
     inkscape:window-maximized="1"
     inkscape:current-layer="layer1" /><g
     id="Captions"
     display="none"
     style="display:none"
     transform="translate(0,-27)" /><g
     inkscape:groupmode="layer"
     id="layer1"
     inkscape:label="Layer"><rect
       style="color:#000000;fill:#ffffff;fill-opacity:1;fill-rule:nonzero;stroke:#ffffff;stroke-width:0;stroke-linejoin:miter;stroke-miterlimit:4;stroke-opacity:1;stroke-dasharray:none;marker:none;visibility:visible;display:inline;overflow:visible;enable-background:accumulate"
       id="rect3140"
       width="108"
       height="108"
       x="-9"
       y="-10" /></g><g
     id="Your_Icon"
     transform="translate(-5,-6)"><path
       d="m 77.109,57.44 c -7.671,0 -13.89,6.22 -13.89,13.89 0,7.672 13.89,26.67 13.89,26.67 C 77.109,98 91,79.002 91,71.33 91,63.66 84.78,57.44 77.109,57.44 z m 0,21.669 c -4.296,0 -7.778,-3.482 -7.778,-7.779 0,-4.296 3.482,-7.777 7.778,-7.777 4.297,0 7.778,3.481 7.778,7.777 0.001,4.297 -3.481,7.779 -7.778,7.779 z"
       id="path3096"
       inkscape:connector-curvature="0" /><polygon
       points="37,54 18,34 18,71 "
       id="polygon3098" /><polygon
       points="18,21 44,48 62,33 62,11 18,11 "
       id="polygon3100" /><g
       id="g3102"><path
         d="M 16.228,93 C 16.228,93 14,93 14,90.77 14,88.54 14,11.461 14,9.229 14,7 16.228,7 16.228,7 H 61.54 C 64.002,7 66,8.996 66,11.461 V 29 H 79.307 C 83.77,29 86,32.539 86,37 v 17.123 c 1.868,0.974 3.553,2.242 5,3.746 0,-12.176 0,-16.168 0,-19.826 0,-8.922 -5.592,-12.824 -5.592,-12.824 L 67.811,5.843 C 67.811,5.843 64.752,2 57.967,2 52.207,2 16.545,2 16.545,2 12.863,2 9,5.089 9,8.77 V 90.388 C 9,94.067 12.863,98 16.545,98 h 53.594 c -1.011,-1.574 -2.064,-3.261 -3.11,-5 H 16.228 z"
         id="path3104"
         inkscape:connector-curvature="0" /><path
         d="m 18,82 v 7 h 46.694 c -3.737,-6.643 -6.868,-13.485 -6.868,-17.776 0,-3.557 0.98,-6.877 2.66,-9.737 L 52,52 18,82 z"
         id="path3106"
         inkscape:connector-curvature="0" /><path
         d="m 72,34 -15,14 8.13,8.13 c 3.292,-2.616 7.449,-4.189 11.979,-4.189 1.333,0 2.634,0.136 3.891,0.393 V 34 h -9 z"
         id="path3108"
         inkscape:connector-curvature="0" /></g></g></svg>